<mxfile host="app.diagrams.net" modified="2022-08-02T06:18:14.491Z" agent="5.0 (Windows NT 10.0; Win64; x64) AppleWebKit/537.36 (KHTML, like Gecko) Chrome/103.0.0.0 Safari/537.36" etag="vUkN0apTJEfSJSBlKPL-" version="20.0.4" type="github">
  <diagram id="WzIYKn9JWgPCPKjEJvRS" name="Page-1">
    <mxGraphModel dx="1038" dy="1725" grid="1" gridSize="10" guides="1" tooltips="1" connect="1" arrows="1" fold="1" page="1" pageScale="1" pageWidth="827" pageHeight="1169" math="0" shadow="0">
      <root>
        <mxCell id="0" />
        <mxCell id="1" parent="0" />
        <mxCell id="hODroTGBOnxEAEhghBja-4" value="" style="edgeStyle=orthogonalEdgeStyle;rounded=0;orthogonalLoop=1;jettySize=auto;html=1;fontSize=14;fillColor=#d5e8d4;strokeColor=#82b366;" parent="1" source="hODroTGBOnxEAEhghBja-2" target="hODroTGBOnxEAEhghBja-3" edge="1">
          <mxGeometry relative="1" as="geometry" />
        </mxCell>
        <mxCell id="hODroTGBOnxEAEhghBja-2" value="Spring" style="rounded=1;whiteSpace=wrap;html=1;fontSize=14;fillColor=#d5e8d4;strokeColor=#82b366;" parent="1" vertex="1">
          <mxGeometry x="140" y="-1110" width="120" height="60" as="geometry" />
        </mxCell>
        <mxCell id="hODroTGBOnxEAEhghBja-6" value="" style="edgeStyle=orthogonalEdgeStyle;rounded=0;orthogonalLoop=1;jettySize=auto;html=1;fontSize=14;fillColor=#d5e8d4;strokeColor=#82b366;" parent="1" source="hODroTGBOnxEAEhghBja-3" target="hODroTGBOnxEAEhghBja-5" edge="1">
          <mxGeometry relative="1" as="geometry" />
        </mxCell>
        <mxCell id="hODroTGBOnxEAEhghBja-3" value="Spring Boot" style="whiteSpace=wrap;html=1;fontSize=14;rounded=1;fillColor=#d5e8d4;strokeColor=#82b366;" parent="1" vertex="1">
          <mxGeometry x="340" y="-1110" width="120" height="60" as="geometry" />
        </mxCell>
        <mxCell id="hODroTGBOnxEAEhghBja-5" value="Spring Cloud" style="whiteSpace=wrap;html=1;fontSize=14;rounded=1;fillColor=#d5e8d4;strokeColor=#82b366;" parent="1" vertex="1">
          <mxGeometry x="540" y="-1110" width="120" height="60" as="geometry" />
        </mxCell>
        <mxCell id="hODroTGBOnxEAEhghBja-7" value="Spirng 是 Spring 系列框架应用的基石，其他两个应用框架是建立在该应用的基础&lt;br&gt;了解 Spring 的源码，有助于对于其他两个框架设计的理解" style="text;html=1;strokeColor=none;fillColor=none;align=center;verticalAlign=middle;whiteSpace=wrap;rounded=0;fontSize=14;" parent="1" vertex="1">
          <mxGeometry x="99" y="-1150" width="630" height="30" as="geometry" />
        </mxCell>
        <mxCell id="hODroTGBOnxEAEhghBja-8" value="了解 Spring 可以做什么&lt;br&gt;基于 Spring 二次开发，学习起设计思想，规范自己的代码格式&lt;br&gt;面试最重要" style="rounded=0;whiteSpace=wrap;html=1;fontSize=14;fillColor=#ffe6cc;strokeColor=#d79b00;" parent="1" vertex="1">
          <mxGeometry x="140" y="-1030" width="530" height="60" as="geometry" />
        </mxCell>
        <mxCell id="hODroTGBOnxEAEhghBja-12" value="" style="edgeStyle=orthogonalEdgeStyle;rounded=0;orthogonalLoop=1;jettySize=auto;html=1;fontSize=14;entryX=0;entryY=0.5;entryDx=0;entryDy=0;" parent="1" source="hODroTGBOnxEAEhghBja-10" target="hODroTGBOnxEAEhghBja-11" edge="1">
          <mxGeometry relative="1" as="geometry" />
        </mxCell>
        <mxCell id="hODroTGBOnxEAEhghBja-14" value="" style="edgeStyle=orthogonalEdgeStyle;rounded=0;orthogonalLoop=1;jettySize=auto;html=1;fontSize=14;entryX=0;entryY=0.5;entryDx=0;entryDy=0;" parent="1" source="hODroTGBOnxEAEhghBja-10" target="hODroTGBOnxEAEhghBja-13" edge="1">
          <mxGeometry relative="1" as="geometry" />
        </mxCell>
        <mxCell id="hODroTGBOnxEAEhghBja-10" value="Spring 重要的两大特性" style="rounded=1;whiteSpace=wrap;html=1;fontSize=14;fillColor=#dae8fc;strokeColor=#6c8ebf;" parent="1" vertex="1">
          <mxGeometry x="10" y="-850" width="120" height="60" as="geometry" />
        </mxCell>
        <mxCell id="hODroTGBOnxEAEhghBja-18" value="" style="edgeStyle=orthogonalEdgeStyle;rounded=0;orthogonalLoop=1;jettySize=auto;html=1;fontSize=14;entryX=0;entryY=0.5;entryDx=0;entryDy=0;" parent="1" source="hODroTGBOnxEAEhghBja-11" target="hODroTGBOnxEAEhghBja-17" edge="1">
          <mxGeometry relative="1" as="geometry" />
        </mxCell>
        <mxCell id="hODroTGBOnxEAEhghBja-20" value="" style="edgeStyle=orthogonalEdgeStyle;rounded=0;orthogonalLoop=1;jettySize=auto;html=1;fontSize=14;" parent="1" source="hODroTGBOnxEAEhghBja-11" target="hODroTGBOnxEAEhghBja-19" edge="1">
          <mxGeometry relative="1" as="geometry" />
        </mxCell>
        <mxCell id="hODroTGBOnxEAEhghBja-24" value="" style="edgeStyle=orthogonalEdgeStyle;rounded=0;orthogonalLoop=1;jettySize=auto;html=1;fontSize=14;entryX=0;entryY=0.5;entryDx=0;entryDy=0;" parent="1" source="hODroTGBOnxEAEhghBja-11" target="hODroTGBOnxEAEhghBja-23" edge="1">
          <mxGeometry relative="1" as="geometry" />
        </mxCell>
        <mxCell id="hODroTGBOnxEAEhghBja-11" value="IOC(控制反转(依赖注入, 又称为 DI))" style="whiteSpace=wrap;html=1;fontSize=14;rounded=1;fillColor=#fff2cc;strokeColor=#d6b656;" parent="1" vertex="1">
          <mxGeometry x="180" y="-910" width="150" height="50" as="geometry" />
        </mxCell>
        <mxCell id="hODroTGBOnxEAEhghBja-13" value="AOP(切面)" style="rounded=1;whiteSpace=wrap;html=1;fontSize=14;fillColor=#d5e8d4;strokeColor=#82b366;" parent="1" vertex="1">
          <mxGeometry x="180" y="-710" width="120" height="60" as="geometry" />
        </mxCell>
        <mxCell id="hODroTGBOnxEAEhghBja-17" value="背景：系统运行需要各个组件配合运行，并且组件之间又相互依赖" style="whiteSpace=wrap;html=1;fontSize=14;rounded=1;align=left;fillColor=#f8cecc;strokeColor=#b85450;" parent="1" vertex="1">
          <mxGeometry x="370" y="-960" width="280" height="40" as="geometry" />
        </mxCell>
        <mxCell id="hODroTGBOnxEAEhghBja-22" value="" style="edgeStyle=orthogonalEdgeStyle;rounded=0;orthogonalLoop=1;jettySize=auto;html=1;fontSize=14;" parent="1" source="hODroTGBOnxEAEhghBja-19" target="hODroTGBOnxEAEhghBja-21" edge="1">
          <mxGeometry relative="1" as="geometry" />
        </mxCell>
        <mxCell id="hODroTGBOnxEAEhghBja-19" value="问题：组件生命周期和相互依赖的关系需要开发人员维护，增加系统复杂性以及组件之间的耦合性" style="whiteSpace=wrap;html=1;fontSize=14;fillColor=#fff2cc;strokeColor=#d6b656;rounded=1;align=left;" parent="1" vertex="1">
          <mxGeometry x="425" y="-915" width="325" height="60" as="geometry" />
        </mxCell>
        <mxCell id="hODroTGBOnxEAEhghBja-21" value="总结：&lt;br&gt;1. 组件对象谁负责创建；&lt;br&gt;2. 组件依赖关系谁负责维护；&lt;br&gt;3. 组件声明周期谁负责维护；" style="whiteSpace=wrap;html=1;fontSize=14;align=left;fillColor=#fff2cc;strokeColor=#d6b656;rounded=1;" parent="1" vertex="1">
          <mxGeometry x="781" y="-925" width="189" height="80" as="geometry" />
        </mxCell>
        <mxCell id="hODroTGBOnxEAEhghBja-26" value="" style="edgeStyle=orthogonalEdgeStyle;rounded=0;orthogonalLoop=1;jettySize=auto;html=1;fontSize=14;" parent="1" source="hODroTGBOnxEAEhghBja-23" target="hODroTGBOnxEAEhghBja-25" edge="1">
          <mxGeometry relative="1" as="geometry" />
        </mxCell>
        <mxCell id="hODroTGBOnxEAEhghBja-23" value="解决：IOC，将所有组件对象放入 Spring IOC 容器中，交由 Spring 维护。需要那些组件就像容器中注入那些组件。因而 IOC 又称为 DI(依赖注入)" style="whiteSpace=wrap;html=1;fontSize=14;fillColor=#fff2cc;strokeColor=#d6b656;rounded=1;align=left;" parent="1" vertex="1">
          <mxGeometry x="370" y="-830" width="340" height="60" as="geometry" />
        </mxCell>
        <mxCell id="hODroTGBOnxEAEhghBja-25" value="IOC 容器以 Map 形式对象" style="whiteSpace=wrap;html=1;fontSize=14;align=left;fillColor=#fff2cc;strokeColor=#d6b656;rounded=1;" parent="1" vertex="1">
          <mxGeometry x="770" y="-830" width="120" height="60" as="geometry" />
        </mxCell>
      </root>
    </mxGraphModel>
  </diagram>
</mxfile>
